<mxfile host="app.diagrams.net" agent="Mozilla/5.0 (Macintosh; Intel Mac OS X 10_15_7) AppleWebKit/537.36 (KHTML, like Gecko) Chrome/139.0.0.0 Safari/537.36" version="27.0.9">
  <diagram name="第 1 页" id="bDydYcHs8ox4iO78TLBC">
    <mxGraphModel dx="1822" dy="1126" grid="1" gridSize="10" guides="1" tooltips="1" connect="1" arrows="1" fold="1" page="1" pageScale="1" pageWidth="827" pageHeight="1169" math="0" shadow="0">
      <root>
        <mxCell id="0" />
        <mxCell id="1" parent="0" />
        <mxCell id="redd0UMReRf0THVmn-UP-3" value="" style="rounded=0;whiteSpace=wrap;html=1;" vertex="1" parent="1">
          <mxGeometry x="10" y="10" width="1460" height="900" as="geometry" />
        </mxCell>
        <mxCell id="redd0UMReRf0THVmn-UP-5" value="" style="rounded=0;whiteSpace=wrap;html=1;" vertex="1" parent="1">
          <mxGeometry x="10" y="10" width="250" height="900" as="geometry" />
        </mxCell>
        <mxCell id="redd0UMReRf0THVmn-UP-6" value="" style="rounded=0;whiteSpace=wrap;html=1;" vertex="1" parent="1">
          <mxGeometry x="10" y="10" width="250" height="120" as="geometry" />
        </mxCell>
        <mxCell id="redd0UMReRf0THVmn-UP-7" value="" style="ellipse;whiteSpace=wrap;html=1;aspect=fixed;" vertex="1" parent="1">
          <mxGeometry x="20" y="30" width="80" height="80" as="geometry" />
        </mxCell>
        <mxCell id="redd0UMReRf0THVmn-UP-8" value="超人真不会飞" style="text;html=1;align=center;verticalAlign=middle;whiteSpace=wrap;rounded=0;fontSize=14;" vertex="1" parent="1">
          <mxGeometry x="120" y="55" width="100" height="30" as="geometry" />
        </mxCell>
        <mxCell id="redd0UMReRf0THVmn-UP-10" value="" style="rounded=1;whiteSpace=wrap;html=1;" vertex="1" parent="1">
          <mxGeometry x="45" y="180" width="180" height="40" as="geometry" />
        </mxCell>
        <mxCell id="redd0UMReRf0THVmn-UP-11" value="" style="rounded=1;whiteSpace=wrap;html=1;" vertex="1" parent="1">
          <mxGeometry x="45" y="230" width="180" height="40" as="geometry" />
        </mxCell>
        <mxCell id="redd0UMReRf0THVmn-UP-12" value="" style="rounded=1;whiteSpace=wrap;html=1;" vertex="1" parent="1">
          <mxGeometry x="45" y="280" width="180" height="40" as="geometry" />
        </mxCell>
        <mxCell id="redd0UMReRf0THVmn-UP-13" value="" style="rounded=1;whiteSpace=wrap;html=1;" vertex="1" parent="1">
          <mxGeometry x="45" y="330" width="180" height="40" as="geometry" />
        </mxCell>
        <mxCell id="redd0UMReRf0THVmn-UP-14" value="" style="rounded=1;whiteSpace=wrap;html=1;" vertex="1" parent="1">
          <mxGeometry x="45" y="430" width="180" height="40" as="geometry" />
        </mxCell>
        <mxCell id="redd0UMReRf0THVmn-UP-15" value="" style="rounded=1;whiteSpace=wrap;html=1;" vertex="1" parent="1">
          <mxGeometry x="45" y="380" width="180" height="40" as="geometry" />
        </mxCell>
        <mxCell id="redd0UMReRf0THVmn-UP-16" value="" style="rounded=1;whiteSpace=wrap;html=1;" vertex="1" parent="1">
          <mxGeometry x="45" y="640" width="180" height="40" as="geometry" />
        </mxCell>
        <mxCell id="redd0UMReRf0THVmn-UP-17" value="" style="rounded=1;whiteSpace=wrap;html=1;" vertex="1" parent="1">
          <mxGeometry x="45" y="740" width="180" height="40" as="geometry" />
        </mxCell>
        <mxCell id="redd0UMReRf0THVmn-UP-18" value="" style="rounded=1;whiteSpace=wrap;html=1;" vertex="1" parent="1">
          <mxGeometry x="45" y="690" width="180" height="40" as="geometry" />
        </mxCell>
        <mxCell id="redd0UMReRf0THVmn-UP-19" value="" style="verticalLabelPosition=bottom;verticalAlign=top;html=1;shape=mxgraph.basic.polygon;polyCoords=[[0.25,0],[0.75,0],[1,0.25],[1,0.75],[0.75,1],[0.25,1],[0,0.75],[0,0.25]];polyline=0;" vertex="1" parent="1">
          <mxGeometry x="45" y="860" width="40" height="40" as="geometry" />
        </mxCell>
        <mxCell id="redd0UMReRf0THVmn-UP-20" value="" style="verticalLabelPosition=bottom;verticalAlign=top;html=1;shape=mxgraph.basic.polygon;polyCoords=[[0.25,0],[0.75,0],[1,0.25],[1,0.75],[0.75,1],[0.25,1],[0,0.75],[0,0.25]];polyline=0;" vertex="1" parent="1">
          <mxGeometry x="180" y="860" width="40" height="40" as="geometry" />
        </mxCell>
        <mxCell id="redd0UMReRf0THVmn-UP-21" value="" style="verticalLabelPosition=bottom;verticalAlign=top;html=1;shape=mxgraph.basic.polygon;polyCoords=[[0.25,0],[0.75,0],[1,0.25],[1,0.75],[0.75,1],[0.25,1],[0,0.75],[0,0.25]];polyline=0;" vertex="1" parent="1">
          <mxGeometry x="115" y="860" width="40" height="40" as="geometry" />
        </mxCell>
        <mxCell id="redd0UMReRf0THVmn-UP-22" value="" style="rounded=0;whiteSpace=wrap;html=1;" vertex="1" parent="1">
          <mxGeometry x="280" y="30" width="1170" height="860" as="geometry" />
        </mxCell>
        <mxCell id="redd0UMReRf0THVmn-UP-23" value="" style="rounded=0;whiteSpace=wrap;html=1;" vertex="1" parent="1">
          <mxGeometry x="1210" y="50" width="220" height="820" as="geometry" />
        </mxCell>
        <mxCell id="redd0UMReRf0THVmn-UP-24" value="" style="rounded=1;whiteSpace=wrap;html=1;" vertex="1" parent="1">
          <mxGeometry x="1230" y="90" width="180" height="40" as="geometry" />
        </mxCell>
        <mxCell id="redd0UMReRf0THVmn-UP-25" value="" style="rounded=1;whiteSpace=wrap;html=1;" vertex="1" parent="1">
          <mxGeometry x="1230" y="140" width="180" height="40" as="geometry" />
        </mxCell>
        <mxCell id="redd0UMReRf0THVmn-UP-26" value="" style="rounded=1;whiteSpace=wrap;html=1;" vertex="1" parent="1">
          <mxGeometry x="1230" y="190" width="180" height="40" as="geometry" />
        </mxCell>
        <mxCell id="redd0UMReRf0THVmn-UP-27" value="" style="rounded=1;whiteSpace=wrap;html=1;" vertex="1" parent="1">
          <mxGeometry x="1230" y="240" width="180" height="40" as="geometry" />
        </mxCell>
        <mxCell id="redd0UMReRf0THVmn-UP-28" value="" style="rounded=1;whiteSpace=wrap;html=1;" vertex="1" parent="1">
          <mxGeometry x="1230" y="340" width="180" height="40" as="geometry" />
        </mxCell>
        <mxCell id="redd0UMReRf0THVmn-UP-29" value="" style="rounded=1;whiteSpace=wrap;html=1;" vertex="1" parent="1">
          <mxGeometry x="1230" y="290" width="180" height="40" as="geometry" />
        </mxCell>
        <mxCell id="redd0UMReRf0THVmn-UP-30" value="" style="rounded=1;whiteSpace=wrap;html=1;" vertex="1" parent="1">
          <mxGeometry x="1230" y="390" width="180" height="40" as="geometry" />
        </mxCell>
        <mxCell id="redd0UMReRf0THVmn-UP-31" value="" style="rounded=1;whiteSpace=wrap;html=1;" vertex="1" parent="1">
          <mxGeometry x="1230" y="440" width="180" height="40" as="geometry" />
        </mxCell>
        <mxCell id="redd0UMReRf0THVmn-UP-32" value="" style="rounded=1;whiteSpace=wrap;html=1;" vertex="1" parent="1">
          <mxGeometry x="1230" y="490" width="180" height="40" as="geometry" />
        </mxCell>
        <mxCell id="redd0UMReRf0THVmn-UP-33" value="" style="rounded=1;whiteSpace=wrap;html=1;" vertex="1" parent="1">
          <mxGeometry x="1230" y="540" width="180" height="40" as="geometry" />
        </mxCell>
        <mxCell id="redd0UMReRf0THVmn-UP-34" value="" style="rounded=1;whiteSpace=wrap;html=1;" vertex="1" parent="1">
          <mxGeometry x="1230" y="640" width="180" height="40" as="geometry" />
        </mxCell>
        <mxCell id="redd0UMReRf0THVmn-UP-35" value="" style="rounded=1;whiteSpace=wrap;html=1;" vertex="1" parent="1">
          <mxGeometry x="1230" y="590" width="180" height="40" as="geometry" />
        </mxCell>
        <mxCell id="redd0UMReRf0THVmn-UP-36" value="" style="rounded=1;whiteSpace=wrap;html=1;" vertex="1" parent="1">
          <mxGeometry x="1230" y="690" width="180" height="40" as="geometry" />
        </mxCell>
        <mxCell id="redd0UMReRf0THVmn-UP-37" value="" style="rounded=1;whiteSpace=wrap;html=1;" vertex="1" parent="1">
          <mxGeometry x="1230" y="790" width="180" height="40" as="geometry" />
        </mxCell>
        <mxCell id="redd0UMReRf0THVmn-UP-38" value="" style="rounded=1;whiteSpace=wrap;html=1;" vertex="1" parent="1">
          <mxGeometry x="1230" y="740" width="180" height="40" as="geometry" />
        </mxCell>
        <mxCell id="redd0UMReRf0THVmn-UP-39" value="" style="ellipse;whiteSpace=wrap;html=1;aspect=fixed;" vertex="1" parent="1">
          <mxGeometry x="350" y="100" width="80" height="80" as="geometry" />
        </mxCell>
        <mxCell id="redd0UMReRf0THVmn-UP-40" value="超人真不会飞" style="text;html=1;align=center;verticalAlign=middle;whiteSpace=wrap;rounded=0;fontSize=14;" vertex="1" parent="1">
          <mxGeometry x="450" y="125" width="100" height="30" as="geometry" />
        </mxCell>
        <mxCell id="redd0UMReRf0THVmn-UP-42" value="" style="rounded=0;whiteSpace=wrap;html=1;" vertex="1" parent="1">
          <mxGeometry x="350" y="230" width="840" height="640" as="geometry" />
        </mxCell>
        <mxCell id="redd0UMReRf0THVmn-UP-43" value="" style="rounded=0;whiteSpace=wrap;html=1;" vertex="1" parent="1">
          <mxGeometry x="460" y="260" width="140" height="110" as="geometry" />
        </mxCell>
        <mxCell id="redd0UMReRf0THVmn-UP-44" value="" style="rounded=0;whiteSpace=wrap;html=1;" vertex="1" parent="1">
          <mxGeometry x="700" y="260" width="140" height="110" as="geometry" />
        </mxCell>
        <mxCell id="redd0UMReRf0THVmn-UP-46" value="" style="rounded=0;whiteSpace=wrap;html=1;" vertex="1" parent="1">
          <mxGeometry x="940" y="260" width="140" height="110" as="geometry" />
        </mxCell>
      </root>
    </mxGraphModel>
  </diagram>
</mxfile>
